# xmcd CD database file
#
# Track frame offsets:
#	205
#	17425
#	32945
#	47000
#	60395
#	75847
#	98077
#	115870
#	126540
#	138042
#	149432
#	166770
#	181337
#	194960
#	209397
#	221225
#	234732
#	244742
#	259795
#	271207
#	291400
#	304970
#	315755
#
# Disc length: 4489 seconds
#
# Revision: 0
# Processed by: cddbd v1.5.1PL0 Copyright (c) Steve Scherf et al.
# Submitted via: CDex 1.51
#
DISCID=50118717
DTITLE=ted Hawkins - The Best of Venice Beach Tapes
DYEAR=1900
DGENRE=Blues
TTITLE0=I got what I wanted
TTITLE1=Bring it on home to me
TTITLE2=Ladder of success
TTITLE3=Green Green Grass of Home
TTITLE4=Gypsy Woman
TTITLE5=Part time love
TTITLE6=He will break your heart
TTITLE7=North to Alaska
TTITLE8=There stands a glass
TTITLE9=Quiet Place
TTITLE10=Country Road
TTITLE11=Your Cheatin Heart
TTITLE12=Dock of the Bay
TTITLE13=Too Busy Thinking about my baby
TTITLE14=Crystal Chandelier
TTITLE15=Blowin in the Wind
TTITLE16=Don't ever leave me
TTITLE17=Searchin for my baby
TTITLE18=Let the good times roll
TTITLE19=Just my imagination
TTITLE20=Chain Gang
TTITLE21=I love you most of all
TTITLE22=San Francisco
EXTD=
EXTT0=
EXTT1=
EXTT2=
EXTT3=
EXTT4=
EXTT5=
EXTT6=
EXTT7=
EXTT8=
EXTT9=
EXTT10=
EXTT11=
EXTT12=
EXTT13=
EXTT14=
EXTT15=
EXTT16=
EXTT17=
EXTT18=
EXTT19=
EXTT20=
EXTT21=
EXTT22=
PLAYORDER=
